<svg xmlns="http://www.w3.org/2000/svg" xmlns:xlink="http://www.w3.org/1999/xlink" width="162" height="161" viewBox="0 0 162 161">
  <defs>
    <filter id="Elipse_9" x="0" y="0" width="162" height="161" filterUnits="userSpaceOnUse">
      <feOffset dy="3" input="SourceAlpha"/>
      <feGaussianBlur stdDeviation="3" result="blur"/>
      <feFlood flood-opacity="0.161"/>
      <feComposite operator="in" in2="blur"/>
      <feComposite in="SourceGraphic"/>
    </filter>
  </defs>
  <g id="Grupo_53" data-name="Grupo 53" transform="translate(-184 -970.5)">
    <g transform="matrix(1, 0, 0, 1, 184, 970.5)" filter="url(#Elipse_9)">
      <ellipse id="Elipse_9-2" data-name="Elipse 9" cx="72" cy="71.5" rx="72" ry="71.5" transform="translate(9 6)" fill="#f9f9f9"/>
    </g>
    <g id="pay_1959317" transform="translate(219.508 1018.306)">
      <path id="Caminho_20" data-name="Caminho 20" d="M5.585,16.133H35.072a1.552,1.552,0,0,1,1.552,1.552v4.656H41.28a1.552,1.552,0,0,1,1.552,1.552V41.557l11.23,5.615H95.6a1.552,1.552,0,0,1,1.552,1.552V89.075A1.552,1.552,0,0,1,95.6,90.627H64.56a1.552,1.552,0,0,1-1.552-1.552V84.7L46.192,87.5a1.585,1.585,0,0,1-.256.022H22.657a6.188,6.188,0,0,1-5.345-3.1H11.793a1.552,1.552,0,0,1-1.552-1.552V78.212H5.585A1.552,1.552,0,0,1,4.033,76.66V17.685A1.552,1.552,0,0,1,5.585,16.133Zm34.143,9.312H13.345V47.172h3.1V33.2A1.552,1.552,0,0,1,18,31.653,1.552,1.552,0,0,0,19.553,30.1,1.552,1.552,0,0,1,21.1,28.549H31.969A1.552,1.552,0,0,1,33.52,30.1a1.552,1.552,0,0,0,1.552,1.552A1.552,1.552,0,0,1,36.624,33.2V47.172h3.1ZM19.553,47.172H33.52V34.491a4.681,4.681,0,0,1-2.839-2.839H22.391a4.681,4.681,0,0,1-2.839,2.839ZM66.112,87.523H94.047V50.276H66.112ZM25.761,78.212h-3.1a3.1,3.1,0,0,0,0,6.208H45.807l17.2-2.866V50.276H53.7A1.552,1.552,0,0,1,53,50.113l-10.17-5.086v3.7a1.552,1.552,0,0,1-1.552,1.552H13.345a3.1,3.1,0,1,0,0,6.208h6.208a1.552,1.552,0,1,1,0,3.1h-3.1a3.1,3.1,0,1,0,0,6.208h6.208a1.552,1.552,0,1,1,0,3.1h-3.1a3.1,3.1,0,0,0,0,6.208h6.208a1.552,1.552,0,1,1,0,3.1Zm-12.416,3.1h3.1A6.182,6.182,0,0,1,17.5,77.862a6.208,6.208,0,0,1-3.1-9.312,6.089,6.089,0,0,1-1.051-.5ZM7.137,53.38V75.108h3.1V58.741a6.167,6.167,0,0,1,0-10.708V23.893a1.552,1.552,0,0,1,1.552-1.552H33.52v-3.1H7.137Z" transform="translate(-4.541 -24.133)" fill="#515c6f"/>
      <path id="Caminho_21" data-name="Caminho 21" d="M30.408,88.733A6.208,6.208,0,1,1,24.2,94.941,6.208,6.208,0,0,1,30.408,88.733Zm0,9.312a3.1,3.1,0,1,0-3.1-3.1A3.1,3.1,0,0,0,30.408,98.045Z" transform="translate(40.982 -32.863)" fill="#515c6f"/>
    </g>
  </g>
</svg>
