<?xml version="1.0" encoding="utf-8"?>
<!-- Generator: Adobe Illustrator 23.0.0, SVG Export Plug-In . SVG Version: 6.00 Build 0)  -->
<svg version="1.1" id="Camada_1" xmlns="http://www.w3.org/2000/svg" xmlns:xlink="http://www.w3.org/1999/xlink" x="0px" y="0px"
	 viewBox="0 0 162 161" style="enable-background:new 0 0 162 161;" xml:space="preserve">
<style type="text/css">
	.st0{filter:url(#Elipse_8);}
	.st0{fill:#F9F9F9;}
	.st1{fill:#777777;}
</style>
	<filter  filterUnits="userSpaceOnUse" height="161" id="Elipse_8" width="162" x="0" y="0">
	<feOffset  dy="3" input="SourceAlpha"></feOffset>
		<feGaussianBlur  result="blur" stdDeviation="3"></feGaussianBlur>
		<feFlood  flood-opacity="0.161"></feFlood>
		<feComposite  in2="blur" operator="in"></feComposite>
		<feComposite  in="SourceGraphic" operator="over"></feComposite>
</filter>
<g id="Grupo_52" transform="translate(-189 -970.5)">
	<g transform="matrix(1, 0, 0, 1, 189, 970.5)">
		<ellipse id="Elipse_8-2" class="st0" cx="81" cy="77.5" rx="72" ry="71.5"/>
	</g>
	<g id="right_person_1679109" transform="translate(212.701 991.7)">
		<path id="Caminho_17" class="st1" d="M86.6,59.1c-2,0-3.9,0.9-5.2,2.4c-2.4-2.9-6.7-3.2-9.6-0.7c-0.3,0.2-0.5,0.5-0.7,0.7
			C69,59,65.4,58.4,62.5,60v-5.4c0.2-0.1,0.4-0.1,0.7-0.2c0.2-0.1,0.3-0.1,0.5-0.2c0.5-0.2,1-0.4,1.5-0.6c0.1-0.1,0.3-0.1,0.4-0.2
			c0.6-0.2,1.2-0.5,1.7-0.8l0.1,0c2.4-1.2,4.6-2.8,6.5-4.8c0-0.1,0.1-0.1,0.1-0.2c10-10.2,9.8-26.5-0.4-36.5s-26.5-9.8-36.5,0.4
			c-9.8,10.1-9.8,26.1,0.1,36.2c0,0,0,0.1,0.1,0.1c0.1,0.1,0.2,0.2,0.4,0.3c0.1,0.1,0.2,0.2,0.3,0.2c0.4,0.4,0.9,0.8,1.3,1.2
			c0.1,0.1,0.3,0.2,0.4,0.3c0.5,0.4,0.9,0.7,1.4,1c0.1,0.1,0.2,0.2,0.4,0.3c0.6,0.4,1.2,0.8,1.8,1.1c0.1,0.1,0.3,0.1,0.4,0.2
			c0.5,0.3,1,0.5,1.5,0.7c0.2,0.1,0.5,0.2,0.7,0.3c0.5,0.2,0.9,0.4,1.4,0.5c0.2,0.1,0.4,0.2,0.7,0.2c0.3,0.1,0.5,0.1,0.8,0.2v26.1
			l-5.6-5.6c-3-3.1-7.9-3.2-11-0.2c-3.1,3-3.2,7.9-0.2,11c0.1,0.1,0.2,0.2,0.2,0.2l16.7,16.7v2.7c0,0.9,0.8,1.7,1.7,1.7h39.6
			c0.9,0,1.7-0.8,1.7-1.7c0,0,0,0,0,0v-6.5l1.5-3.1c0.1-0.2,0.2-0.5,0.2-0.8V66C93.5,62.2,90.4,59.1,86.6,59.1z M48.8,45.3v5.8
			c-0.7-0.2-1.4-0.5-2.1-0.8c-0.2-0.1-0.4-0.2-0.6-0.3c-0.5-0.2-1-0.5-1.4-0.7c-0.2-0.1-0.4-0.3-0.7-0.4c-0.4-0.3-0.9-0.6-1.3-0.9
			c-0.2-0.1-0.4-0.3-0.6-0.4c-0.6-0.4-1.1-0.9-1.6-1.3c-0.1,0-0.1-0.1-0.1-0.1c1-5.8,5.2-10.5,10.8-12.2c2.8,1.4,6.1,1.4,9,0
			c5.6,1.7,9.8,6.4,10.8,12.2c-0.2,0.2-0.5,0.4-0.7,0.7c-0.1,0-0.1,0.1-0.2,0.1c-0.8,0.7-1.7,1.3-2.6,1.9c0,0-0.1,0.1-0.1,0.1
			c-0.3,0.2-0.7,0.4-1,0.6c-0.3,0.2-0.6,0.3-1,0.5c-0.3,0.1-0.6,0.3-0.8,0.4c-0.6,0.3-1.2,0.5-1.8,0.7c0,0-0.1,0-0.1,0v-5.8
			c0-3.8-3.1-6.9-6.9-6.9S48.8,41.5,48.8,45.3L48.8,45.3z M59.1,30.6C59.1,30.6,59.1,30.6,59.1,30.6c-0.5,0.3-1,0.5-1.5,0.6
			c-0.1,0-0.2,0.1-0.3,0.1c-0.2,0-0.4,0.1-0.6,0.1c-0.3,0.1-0.6,0.1-1,0.1c-0.1,0-0.2,0-0.3,0c-0.3,0-0.6,0-1-0.1
			c-0.2,0-0.4-0.1-0.6-0.1c-0.1,0-0.2-0.1-0.3-0.1c-0.5-0.2-1-0.4-1.5-0.6c0,0,0,0,0,0c-3.3-1.9-4.4-6.1-2.5-9.4s6.1-4.4,9.4-2.5
			c3.3,1.9,4.4,6.1,2.5,9.4C61,29.1,60.1,30,59.1,30.6L59.1,30.6z M33.4,27.5C34.5,16.6,43.5,8,54.5,7.5C66.9,6.8,77.4,16.3,78,28.6
			c0.3,5.2-1.3,10.3-4.3,14.4c-1.7-5.1-5.4-9.3-10.3-11.5c3.8-4.3,3.4-10.8-0.9-14.6s-10.8-3.4-14.6,0.9c-3.5,3.9-3.5,9.8,0,13.7
			C43,33.7,39.3,37.9,37.6,43C34.3,38.6,32.8,33.1,33.4,27.5L33.4,27.5z M90.1,94.8l-1.5,3.1c-0.1,0.2-0.2,0.5-0.2,0.8v5.2H52.2
			v-1.7c0-0.5-0.2-0.9-0.5-1.2L34.5,83.8c-1.7-1.7-1.7-4.5,0.1-6.2c1.7-1.7,4.4-1.7,6.1,0l8.5,8.5c0.7,0.7,1.8,0.7,2.4,0
			c0.3-0.3,0.5-0.8,0.5-1.2V45.3c0-1.9,1.5-3.4,3.4-3.4s3.4,1.5,3.4,3.4l0,0v31h3.4V66c0-1.9,1.5-3.4,3.4-3.4c1.9,0,3.4,1.5,3.4,3.4
			l0,0v10.3h3.4V66c0-1.9,1.5-3.4,3.4-3.4c1.9,0,3.4,1.5,3.4,3.4l0,0v10.3h3.4V66c0-1.9,1.5-3.4,3.4-3.4c1.9,0,3.4,1.5,3.4,3.4
			L90.1,94.8z"/>
		<path id="Caminho_18" class="st1" d="M21.6,36.4c3.6-3.1,4.1-8.5,1-12.1s-8.5-4.1-12.1-1s-4.1,8.5-1,12.1c0.3,0.4,0.7,0.7,1,1
			C6.5,38.4,4,42.5,4,47v5.2c0,0.9,0.8,1.7,1.7,1.7c0,0,0,0,0,0h20.7c0.9,0,1.7-0.8,1.7-1.7c0,0,0,0,0,0V47
			C28.1,42.5,25.6,38.4,21.6,36.4z M10.9,29.8c0-2.9,2.3-5.2,5.2-5.2c2.9,0,5.2,2.3,5.2,5.2c0,2.9-2.3,5.2-5.2,5.2
			C13.2,35,10.9,32.7,10.9,29.8L10.9,29.8z M24.7,50.5H7.4V47c0-4.8,3.9-8.6,8.6-8.6s8.6,3.9,8.6,8.6l0,0V50.5z"/>
		<path id="Caminho_19" class="st1" d="M100.8,34.6c3.6-3.1,4.1-8.5,1-12.1c-3.1-3.6-8.5-4.1-12.1-1s-4.1,8.5-1,12.1
			c0.3,0.4,0.7,0.7,1,1c-4,2.1-6.5,6.2-6.5,10.7v5.2c0,0.9,0.8,1.7,1.7,1.7c0,0,0,0,0,0h20.7c0.9,0,1.7-0.8,1.7-1.7v-5.2
			C107.3,40.8,104.8,36.7,100.8,34.6z M90.1,28.1c0-2.9,2.3-5.2,5.2-5.2s5.2,2.3,5.2,5.2s-2.3,5.2-5.2,5.2
			C92.4,33.3,90.1,31,90.1,28.1L90.1,28.1z M103.9,48.8H86.6v-3.4c0-4.8,3.9-8.6,8.6-8.6s8.6,3.9,8.6,8.6L103.9,48.8z"/>
	</g>
</g>
</svg>
