<?xml version="1.0" encoding="utf-8"?>
<!-- Generator: Adobe Illustrator 23.0.0, SVG Export Plug-In . SVG Version: 6.00 Build 0)  -->
<svg version="1.1" id="Camada_1" xmlns="http://www.w3.org/2000/svg" xmlns:xlink="http://www.w3.org/1999/xlink" x="0px" y="0px"
	 viewBox="0 0 162 161" style="enable-background:new 0 0 162 161;" xml:space="preserve">
<style type="text/css">
	.st0{filter:url(#Elipse_15);}
	.st1{fill:#F9F9F9;}
	.st2{fill:#DAAA4A;}
</style>
<filter  filterUnits="userSpaceOnUse" height="161" id="Elipse_15" width="162" x="0" y="0">
	<feOffset  dy="3" input="SourceAlpha"></feOffset>
	<feGaussianBlur  result="blur" stdDeviation="3"></feGaussianBlur>
	<feFlood  flood-opacity="0.161"></feFlood>
	<feComposite  in2="blur" operator="in"></feComposite>
	<feComposite  in="SourceGraphic" operator="over"></feComposite>
</filter>
<g id="Grupo_51" transform="translate(-188 -973.5)">
	<g transform="matrix(1, 0, 0, 1, 188, 973.5)" class="st0">
		<ellipse id="Elipse_15-2_1_" class="st1" cx="81" cy="77.5" rx="72" ry="71.5"/>
	</g>
	<path id="Caminho_16" class="st2" d="M266.4,1072.1h-22.2c-1.2,0-2.2,1-2.2,2.2c0,1.2,1,2.2,2.2,2.2h22.2c1.2,0,2.2-1,2.2-2.2
		C268.6,1073,267.6,1072.1,266.4,1072.1z M288.6,1054.3h-44.4c-1.2,0-2.2,1-2.2,2.2s1,2.2,2.2,2.2h44.4c1.2,0,2.2-1,2.2-2.2
		S289.8,1054.3,288.6,1054.3z M288.6,1036.5h-44.4c-1.2,0-2.2,1-2.2,2.2c0,1.2,1,2.2,2.2,2.2h44.4c1.2,0,2.2-1,2.2-2.2
		C290.8,1037.5,289.8,1036.5,288.6,1036.5z M288.6,1018.7h-44.4c-1.2,0-2.2,1-2.2,2.2c0,1.2,1,2.2,2.2,2.2h44.4c1.2,0,2.2-1,2.2-2.2
		C290.8,1019.7,289.8,1018.7,288.6,1018.7z M288.6,1018.7h-44.4c-1.2,0-2.2,1-2.2,2.2c0,1.2,1,2.2,2.2,2.2h44.4c1.2,0,2.2-1,2.2-2.2
		C290.8,1019.7,289.8,1018.7,288.6,1018.7z M288.6,1036.5h-44.4c-1.2,0-2.2,1-2.2,2.2c0,1.2,1,2.2,2.2,2.2h44.4c1.2,0,2.2-1,2.2-2.2
		C290.8,1037.5,289.8,1036.5,288.6,1036.5z M288.6,1054.3h-44.4c-1.2,0-2.2,1-2.2,2.2s1,2.2,2.2,2.2h44.4c1.2,0,2.2-1,2.2-2.2
		S289.8,1054.3,288.6,1054.3z M266.4,1072.1h-22.2c-1.2,0-2.2,1-2.2,2.2c0,1.2,1,2.2,2.2,2.2h22.2c1.2,0,2.2-1,2.2-2.2
		C268.6,1073,267.6,1072.1,266.4,1072.1z M289.7,999.9h-46.6c-6.7,0-12.2,5.5-12.2,12.2v71.1c0,6.7,5.5,12.2,12.2,12.2h32.7
		c-1-1.3-1.8-2.8-2.4-4.4h-30.3c-4.3,0-7.7-3.4-7.8-7.6v-71.2c0-4.3,3.4-7.7,7.6-7.8h46.8c4.3,0,7.7,3.4,7.8,7.6v55
		c1.6,0.6,3.1,1.4,4.4,2.4v-57.3C301.9,1005.3,296.4,999.9,289.7,999.9z M288.6,1018.7h-44.4c-1.2,0-2.2,1-2.2,2.2
		c0,1.2,1,2.2,2.2,2.2h44.4c1.2,0,2.2-1,2.2-2.2C290.8,1019.7,289.8,1018.7,288.6,1018.7z M288.6,1036.5h-44.4c-1.2,0-2.2,1-2.2,2.2
		c0,1.2,1,2.2,2.2,2.2h44.4c1.2,0,2.2-1,2.2-2.2C290.8,1037.5,289.8,1036.5,288.6,1036.5z M288.6,1054.3h-44.4c-1.2,0-2.2,1-2.2,2.2
		s1,2.2,2.2,2.2h44.4c1.2,0,2.2-1,2.2-2.2S289.8,1054.3,288.6,1054.3z M266.4,1072.1h-22.2c-1.2,0-2.2,1-2.2,2.2
		c0,1.2,1,2.2,2.2,2.2h22.2c1.2,0,2.2-1,2.2-2.2C268.6,1073,267.6,1072.1,266.4,1072.1z"/>
	<path class="st2" d="M290.8,1066.7c-9.8,0-17.7,7.9-17.7,17.7c0,4.2,1.4,8,3.8,11h0c6.1,7.7,17.3,8.9,25,2.8
		c0.5-0.4,1.1-0.9,1.5-1.4c0.2-0.2,0.4-0.4,0.6-0.6c0.1-0.2,0.3-0.3,0.4-0.5c0.2-0.2,0.3-0.4,0.5-0.7c2.2-2.9,3.5-6.6,3.5-10.6
		C308.5,1074.6,300.6,1066.7,290.8,1066.7z M290.8,1097.6c-7.4,0-13.3-6-13.3-13.3c0-7.3,5.9-13.3,13.3-13.3h0.1
		c7.4,0,13.3,6,13.3,13.3S298.2,1097.6,290.8,1097.6z"/>
	<path class="st2" d="M297.9,1083.6L297.9,1083.6c-0.9,0.9-2.3,0.9-3.1,0l-1.8-1.8v10.2c0,1.2-1,2.2-2.2,2.2c-1.2,0-2.2-1-2.2-2.2
		v-10.2l-1.8,1.8c-0.9,0.9-2.3,0.9-3.1,0c-0.9-0.9-0.9-2.3,0-3.1c1.8-1.8,3.7-3.8,5.5-5.5c0.4-0.5,1-0.7,1.6-0.7l0,0
		c0.6,0,1.2,0.3,1.6,0.7c1.8,1.7,3.7,3.7,5.5,5.5c0,0,0,0,0,0.1C298.8,1081.4,298.8,1082.8,297.9,1083.6z"/>
</g>
</svg>
