<svg xmlns="http://www.w3.org/2000/svg" xmlns:xlink="http://www.w3.org/1999/xlink" width="162" height="161" viewBox="0 0 162 161">
  <defs>
    <filter id="Elipse_8" x="0" y="0" width="162" height="161" filterUnits="userSpaceOnUse">
      <feOffset dy="3" input="SourceAlpha"/>
      <feGaussianBlur stdDeviation="3" result="blur"/>
      <feFlood flood-opacity="0.161"/>
      <feComposite operator="in" in2="blur"/>
      <feComposite in="SourceGraphic"/>
    </filter>
  </defs>
  <g id="Grupo_52" data-name="Grupo 52" transform="translate(-189 -970.5)">
    <g transform="matrix(1, 0, 0, 1, 189, 970.5)" filter="url(#Elipse_8)">
      <ellipse id="Elipse_8-2" data-name="Elipse 8" cx="72" cy="71.5" rx="72" ry="71.5" transform="translate(9 6)" fill="#f9f9f9"/>
    </g>
    <g id="right_person_1679109" data-name="right person_1679109" transform="translate(212.701 991.7)">
      <path id="Caminho_17" data-name="Caminho 17" d="M90.815,59.093a6.841,6.841,0,0,0-5.165,2.379,6.8,6.8,0,0,0-10.33,0,6.749,6.749,0,0,0-8.608-1.422V54.692c.224-.062.449-.122.671-.189.17-.052.336-.114.5-.169.518-.17,1.03-.353,1.534-.554.136-.055.27-.112.4-.169q.873-.367,1.715-.794l.091-.046a25.786,25.786,0,0,0,6.515-4.75,1.775,1.775,0,0,0,.122-.2,25.81,25.81,0,1,0-36.84.077c.031.036.041.086.076.121.117.119.244.226.363.341.086.084.176.164.263.248q.651.612,1.339,1.178c.138.112.274.226.413.336q.692.542,1.417,1.035c.121.083.236.169.358.25.6.391,1.207.759,1.834,1.1.145.079.3.146.442.222.486.251.978.491,1.481.713.231.1.465.2.7.291.458.186.923.356,1.393.516.226.077.449.157.678.227.25.077.5.148.754.217V80.763l-5.609-5.609A7.809,7.809,0,1,0,36.286,86.2l16.652,16.652v2.731A1.72,1.72,0,0,0,54.66,107.3h39.6a1.72,1.72,0,0,0,1.722-1.722V99.1l1.541-3.08a1.726,1.726,0,0,0,.181-.77V65.973A6.891,6.891,0,0,0,90.815,59.093ZM52.938,45.32v5.793a22.465,22.465,0,0,1-2.1-.807c-.195-.086-.382-.181-.573-.272q-.728-.343-1.427-.737c-.22-.124-.439-.25-.654-.382-.446-.272-.88-.565-1.307-.868-.188-.134-.382-.258-.565-.4q-.832-.63-1.6-1.341c-.052-.046-.1-.1-.148-.146A15.564,15.564,0,0,1,55.337,33.948a10.195,10.195,0,0,0,8.978,0A15.56,15.56,0,0,1,75.086,46.127c-.232.219-.46.442-.7.651-.05.043-.1.084-.153.127a22.887,22.887,0,0,1-2.6,1.906c-.04.026-.079.055-.119.079-.331.2-.675.387-1.017.575-.322.174-.646.344-.974.5-.281.136-.563.27-.85.394-.6.258-1.214.5-1.839.706-.04.014-.076.029-.115.043V45.32a6.887,6.887,0,0,0-13.775,0ZM63.26,30.593c-.009.005-.019.005-.029.01a7.121,7.121,0,0,1-1.472.632c-.091.028-.179.062-.274.084-.186.048-.374.083-.561.115a6.915,6.915,0,0,1-.95.1c-.1,0-.2,0-.3,0a6.656,6.656,0,0,1-.95-.1c-.188-.033-.375-.065-.561-.115-.093-.024-.181-.059-.274-.084a7.215,7.215,0,0,1-1.472-.632c-.009-.005-.019-.005-.028-.01a6.888,6.888,0,1,1,6.873,0Zm-25.7-3.044A22.444,22.444,0,0,1,58.718,7.471,22.333,22.333,0,0,1,77.849,43.027a19.066,19.066,0,0,0-10.3-11.53,10.329,10.329,0,1,0-15.443,0A19.059,19.059,0,0,0,41.8,43.033,22.442,22.442,0,0,1,37.555,27.549Zm56.7,67.293-1.541,3.08a1.726,1.726,0,0,0-.181.77v5.165H56.382v-1.722a1.714,1.714,0,0,0-.5-1.217L38.721,83.761a4.366,4.366,0,0,1,6.174-6.174l8.548,8.548a1.721,1.721,0,0,0,2.939-1.217V45.32a3.443,3.443,0,0,1,6.887,0V76.31h3.443V65.98a3.443,3.443,0,1,1,6.887,0V76.31h3.443V65.98a3.443,3.443,0,1,1,6.887,0V76.31h3.443V65.98a3.443,3.443,0,0,1,6.887-.007Z" transform="translate(-4.175 0)" fill="#515c6f"/>
      <path id="Caminho_18" data-name="Caminho 18" d="M21.6,39.137a8.608,8.608,0,1,0-11.091,0A12.056,12.056,0,0,0,4,49.825V54.99a1.72,1.72,0,0,0,1.722,1.722h20.66A1.72,1.72,0,0,0,28.1,54.99V49.825A12.056,12.056,0,0,0,21.6,39.137Zm-10.71-6.529a5.165,5.165,0,1,1,5.165,5.165A5.171,5.171,0,0,1,10.887,32.608ZM24.66,53.268H7.443V49.825a8.608,8.608,0,0,1,17.217,0Z" transform="translate(0 -2.783)" fill="#515c6f"/>
      <path id="Caminho_19" data-name="Caminho 19" d="M113.6,37.137a8.608,8.608,0,1,0-11.091,0A12.056,12.056,0,0,0,96,47.825V52.99a1.72,1.72,0,0,0,1.722,1.722h20.66A1.72,1.72,0,0,0,120.1,52.99V47.825A12.056,12.056,0,0,0,113.6,37.137Zm-10.71-6.529a5.165,5.165,0,1,1,5.165,5.165A5.171,5.171,0,0,1,102.887,30.608Zm13.773,20.66H99.444V47.825a8.608,8.608,0,0,1,17.217,0Z" transform="translate(-12.804 -2.505)" fill="#515c6f"/>
    </g>
  </g>
</svg>
