<svg xmlns="http://www.w3.org/2000/svg" xmlns:xlink="http://www.w3.org/1999/xlink" width="162" height="161" viewBox="0 0 162 161">
  <defs>
    <filter id="Elipse_10" x="0" y="0" width="162" height="161" filterUnits="userSpaceOnUse">
      <feOffset dy="3" input="SourceAlpha"/>
      <feGaussianBlur stdDeviation="3" result="blur"/>
      <feFlood flood-opacity="0.161"/>
      <feComposite operator="in" in2="blur"/>
      <feComposite in="SourceGraphic"/>
    </filter>
  </defs>
  <g id="Grupo_54" data-name="Grupo 54" transform="translate(-188 -962.5)">
    <g transform="matrix(1, 0, 0, 1, 188, 962.5)" filter="url(#Elipse_10)">
      <ellipse id="Elipse_10-2" data-name="Elipse 10" cx="72" cy="71.5" rx="72" ry="71.5" transform="translate(9 6)" fill="#f9f9f9"/>
    </g>
    <g id="Layer_12" data-name="Layer 12" transform="translate(210.496 991.283)">
      <path id="Caminho_22" data-name="Caminho 22" d="M56.39,70.536a1.621,1.621,0,0,0,1.232-.583L70.038,55.268a7.974,7.974,0,0,0,0-10.308l-.519-.616a6.483,6.483,0,0,0-4.8-2.269h0a6.289,6.289,0,0,0-4.8,2.269l-4.992,5.738h-16.5l.583-.681a7.65,7.65,0,0,0,1.848-5.057,7.78,7.78,0,0,0-1.88-5.025,6.159,6.159,0,0,0-4.7-2.2h0a6.256,6.256,0,0,0-4.765,2.3l-8.2,10.7H14.508V48.557a1.621,1.621,0,0,0-1.621-1.621H2.125A1.621,1.621,0,0,0,.5,48.557v23.5A1.621,1.621,0,0,0,2.125,73.68H13.049a1.621,1.621,0,0,0,1.621-1.621V70.5Zm-41.2-17.213h6.97a1.621,1.621,0,0,0,1.3-.648l8.623-11.249a3.015,3.015,0,0,1,2.269-1.1h0a2.95,2.95,0,0,1,2.237,1.1,4.612,4.612,0,0,1,.032,5.867l-2.95,3.242A1.621,1.621,0,0,0,34.9,53.225H55.677a1.621,1.621,0,0,0,1.232-.551l5.511-6.289a3,3,0,0,1,4.7,0l.519.616a4.83,4.83,0,0,1,0,6.094h0L55.709,67.2H15.189ZM11.3,70.439H3.746V50.178h7.521Z" transform="translate(0 -5.532)" fill="#515c6f"/>
      <path id="Caminho_23" data-name="Caminho 23" d="M105.89,86.837H95.1a1.621,1.621,0,0,0-1.621,1.621v1.524h-6.84L78.368,79.187a6.192,6.192,0,0,0-4.7-2.2h0a6.159,6.159,0,0,0-4.7,2.237,7.78,7.78,0,0,0-1.848,5.057,7.65,7.65,0,0,0,1.848,5.057l.584.681H53.083l-5.025-5.77a6.483,6.483,0,0,0-4.8-2.269h0a6.483,6.483,0,0,0-4.83,2.269l-.486.551a8.007,8.007,0,0,0,0,10.341l12.416,14.75a1.621,1.621,0,0,0,1.232.583h41.85v1.556a1.621,1.621,0,0,0,1.621,1.621h10.795a1.621,1.621,0,0,0,1.621-1.621V88.458a1.621,1.621,0,0,0-1.589-1.621ZM92.923,107.195H52.37l-11.929-14.1h0a4.83,4.83,0,0,1,0-6.094l.486-.551a3.242,3.242,0,0,1,2.366-1.135h0a3.242,3.242,0,0,1,2.366,1.135l5.478,6.289a1.621,1.621,0,0,0,1.232.551H73.149A1.621,1.621,0,0,0,74.381,90.6l-2.95-3.242a4.571,4.571,0,0,1,0-5.835,2.723,2.723,0,0,1,2.237-1.1,2.95,2.95,0,0,1,2.2,1L84.56,92.769a1.621,1.621,0,0,0,1.3.648h7Zm11.443,3.242H96.684V90.079h7.553Z" transform="translate(-5.835 -12.075)" fill="#515c6f"/>
      <path id="Caminho_24" data-name="Caminho 24" d="M48.237,32.977H74.656a1.621,1.621,0,0,0,1.621-1.621V5.034a1.621,1.621,0,0,0-1.621-1.621H48.237a1.621,1.621,0,0,0-1.621,1.621V31.421A1.621,1.621,0,0,0,48.237,32.977ZM63.991,6.557a1.588,1.588,0,0,0,.389.648l8.655,8.655V20.01h-.227l-8.752,8.752a1.589,1.589,0,0,0-.421.843H58.383l-8.266-8.072-.324-.194V15.212l.259-.162L58.48,6.622Zm-14.2,19.288,4.02,3.89h-4.02Zm17.991,3.89L73,24.516v5.219ZM73,11.29,68.3,6.654h4.733ZM53.942,6.654l-4.149,4.084V6.654Z" transform="translate(-7.569)" fill="#515c6f"/>
    </g>
  </g>
</svg>
