<svg xmlns="http://www.w3.org/2000/svg" viewBox="0 0 486.8 266.1"><title>brand-3</title><path d="M357.7,161.3c0,21.2-.1,42.4,0,63.6,0,4.1-.3,7.9-4.5,10s-7.4.1-10.7-2.3q-22-15.9-44.2-31.7c-4-2.8-5.8-6.1-5.8-11q.3-29.2,0-58.5a11.5,11.5,0,0,1,5.3-10.3c15.2-10.8,30.3-21.6,45.4-32.6,3.1-2.2,6.2-3.4,9.9-1.6s4.6,5.3,4.6,9.4C357.6,118,357.7,139.7,357.7,161.3Z" transform="translate(-8.4 -86)" style="fill:#eaeaea"/><path d="M145.8,160.8q.1-30.9,0-62c0-3.9.5-7.5,4.3-9.6s7.4-.5,10.7,1.8c14.9,10.4,29.7,20.8,44.7,31a11.3,11.3,0,0,1,5.5,10.6q-.3,28.2,0,56.4c.1,5-1.8,8.2-5.8,10.9-14.9,10.1-29.6,20.4-44.3,30.7-3.4,2.3-6.8,4-10.8,1.8s-4.3-5.6-4.3-9.6C145.9,202.2,145.8,181.5,145.8,160.8Z" transform="translate(-8.4 -86)" style="fill:#eaeaea"/><path d="M284.2,160.8c0,7.1.1,14.2-.1,21.3a19.1,19.1,0,0,1-19.3,19.4H238.9c-11.6-.1-19.7-8.4-19.8-20-.1-13.7-.1-27.5,0-41.2.1-11.9,8.2-20,20.1-20.2,8.5,0,17-.1,25.5.1a19.1,19.1,0,0,1,19.4,19.2C284.3,146.5,284.2,153.6,284.2,160.8Z" transform="translate(-8.4 -86)" style="fill:#f7f7f7"/><path d="M74.3,305.2v-60H93.7V352.1l-65.9-66v60H8.4V239.3Z" transform="translate(-8.4 -86)" style="fill:#eaeaea"/><path d="M182.5,245.3v19.4H153.4v81.5H134V264.7H104.9V245.3Z" transform="translate(-8.4 -86)" style="fill:#eaeaea"/><path d="M193.8,245.3h19.4V346.2H193.8Z" transform="translate(-8.4 -86)" style="fill:#eaeaea"/><path d="M243.8,346.2H224.4V245.3h47.5a31.9,31.9,0,0,1,32,32,31.3,31.3,0,0,1-7.2,20.3,31,31,0,0,1-18.1,11l28.2,37.6H282.5l-27.6-36.9H243.8Zm0-56.3h28.1a12.6,12.6,0,1,0,0-25.2H243.8Z" transform="translate(-8.4 -86)" style="fill:#eaeaea"/><path d="M405.3,302.5a43.7,43.7,0,1,1-87.3,0V245.3h19.4v57.2a24.2,24.2,0,0,0,24.3,24.3,24.2,24.2,0,0,0,24.2-24.3V245.3h19.4Z" transform="translate(-8.4 -86)" style="fill:#eaeaea"/><path d="M446.6,305.5a30.2,30.2,0,0,1-30-30.1,28.6,28.6,0,0,1,8.8-21.2,29,29,0,0,1,21.2-8.9h43.7v19.4H446.6a10.3,10.3,0,0,0-7.5,3.2,9.9,9.9,0,0,0-3.1,7.5,10.8,10.8,0,0,0,10.6,10.7h18.5a30.1,30.1,0,0,1,0,60.1H422.4V326.8h42.7a10.6,10.6,0,0,0,7.5-3.1,10.4,10.4,0,0,0,3.1-7.6,10.6,10.6,0,0,0-10.6-10.6Z" transform="translate(-8.4 -86)" style="fill:#eaeaea"/></svg>