<?xml version="1.0" encoding="utf-8"?>
<!-- Generator: Adobe Illustrator 23.0.0, SVG Export Plug-In . SVG Version: 6.00 Build 0)  -->
<svg version="1.1" id="Camada_1" xmlns="http://www.w3.org/2000/svg" xmlns:xlink="http://www.w3.org/1999/xlink" x="0px" y="0px"
	 viewBox="0 0 496.6 128.6" style="enable-background:new 0 0 496.6 128.6;" xml:space="preserve">
<style type="text/css">
	.st0{fill:#F9F9F9;}
</style>
<title>brand-2</title>
<path class="st0" d="M181.9,64.7c0,18.2,0,36.4,0.1,54.6c0,3.5-0.3,6.7-3.9,8.5c-3.6,1.8-6.4,0.2-9.2-1.9
	c-12.6-9.1-25.2-18.2-38-27.2c-3.3-2-5.1-5.7-4.9-9.5c0.1-16.7,0.1-33.5,0-50.2c-0.2-3.5,1.5-6.9,4.5-8.8l39-28
	c2.7-1.9,5.4-3,8.5-1.4s4,4.6,4,8C181.9,27.4,181.9,46.1,181.9,64.7z"/>
<path class="st0" d="M0,64.3C0,46.5,0.1,28.8,0,11c0-3.4,0.4-6.4,3.6-8.2s6.4-0.5,9.3,1.5C25.6,13.2,38.4,22,51.3,30.9
	c3.1,1.9,4.9,5.4,4.7,9.1c-0.2,16.1-0.2,32.3,0,48.4c0.2,3.8-1.7,7.4-5,9.4c-12.8,8.7-25.4,17.5-38,26.4c-2.9,2-5.9,3.4-9.3,1.5
	S0,120.9,0,117.5C0.1,99.8,0,82,0,64.3z"/>
<path class="st0" d="M118.8,64.2c0,6.1,0.1,12.2,0,18.3c-0.2,9.5-7.2,16.6-16.6,16.7c-7.4,0.1-14.9,0.1-22.3,0
	C70,99.1,63,92,62.9,82V46.6C63,36.4,70,29.4,80.2,29.3c7.3,0,14.6-0.1,21.9,0c9.2-0.1,16.6,7.3,16.7,16.5v0.1
	C118.9,52,118.8,58.1,118.8,64.2z"/>
<path class="st0" d="M244,67.3V31.2h11.6v64.2L216,55.8v36h-11.6V27.7L244,67.3z"/>
<path class="st0" d="M309,31.3v11.6h-17.5v48.9h-11.7V42.9h-17.4V31.3H309z"/>
<path class="st0" d="M315.7,31.3h11.6v60.5h-11.6V31.3z"/>
<path class="st0" d="M345.7,91.8h-11.6V31.3h28.5c10.7,0.1,19.2,8.8,19.2,19.4c0,4.4-1.5,8.6-4.3,12c-2.7,3.4-6.6,5.8-10.9,6.6
	l16.9,22.5H369l-16.6-22.1h-6.7L345.7,91.8z M345.7,58.1h16.9c2,0,4-0.8,5.4-2.3c2.9-2.9,2.9-7.7,0-10.6c-1.4-1.5-3.4-2.3-5.4-2.3
	h-16.9V58.1z"/>
<path class="st0" d="M442.7,65.6c0.1,7-2.7,13.7-7.7,18.5c-10.2,10.2-26.7,10.3-36.9,0.1l-0.1-0.1c-5-4.8-7.8-11.5-7.7-18.5V31.3
	h11.6v34.3c0,3.9,1.5,7.6,4.3,10.3c5.6,5.7,14.8,5.7,20.5,0.1l0.1-0.1c2.8-2.7,4.3-6.4,4.3-10.3V31.3h11.6L442.7,65.6z"/>
<path class="st0" d="M467.5,67.4c-4.8,0-9.4-1.9-12.8-5.3c-7-7.1-6.9-18.6,0.2-25.6c3.4-3.3,7.9-5.2,12.6-5.2h26.2v11.6h-26.2
	c-1.7,0-3.3,0.7-4.5,1.9s-1.9,2.8-1.9,4.5c0.1,3.5,2.9,6.3,6.4,6.4h11.1c4.8,0,9.4,1.9,12.7,5.3c7,7.1,6.9,18.6-0.2,25.6
	c-3.3,3.3-7.8,5.2-12.5,5.2H453V80.2h25.6c1.7,0,3.3-0.7,4.5-1.9c1.2-1.2,1.9-2.8,1.9-4.5s-0.7-3.4-1.9-4.6
	c-1.2-1.2-2.8-1.8-4.5-1.8L467.5,67.4z"/>
<path class="st0" d="M494.1,116.2c-0.1,3.7-3.1,6.7-6.8,6.7H209.5c-3.7,0-6.7-3-6.7-6.7s3-6.7,6.7-6.7l0,0h277.8
	C491,109.5,494,112.5,494.1,116.2z"/>
</svg>
