<?xml version="1.0" encoding="utf-8"?>
<!-- Generator: Adobe Illustrator 23.0.0, SVG Export Plug-In . SVG Version: 6.00 Build 0)  -->
<svg version="1.1" id="Camada_1" xmlns="http://www.w3.org/2000/svg" xmlns:xlink="http://www.w3.org/1999/xlink" x="0px" y="0px"
	 viewBox="0 0 423 100" style="enable-background:new 0 0 423 100;" xml:space="preserve">
<style type="text/css">
	.st0{fill:#E9A792;}
</style>
<title>brand-2</title>
<path class="st0" d="M62.9,55.7V4.9h16.3v90.3L23.6,39.5v50.6H7.3V0L62.9,55.7z"/>
<path class="st0" d="M154.4,5.1v16.3h-24.6v68.8h-16.5V21.4H88.8V5.1H154.4z"/>
<path class="st0" d="M163.8,5.1h16.3v85.1h-16.3V5.1z"/>
<path class="st0" d="M206,90.2h-16.3V5.1h40.1c15,0.1,27,12.4,27,27.3c0,6.2-2.1,12.1-6,16.9c-3.8,4.8-9.3,8.2-15.3,9.3l23.8,31.6
	h-20.4l-23.3-31.1H206L206,90.2z M206,42.8h23.8c2.8,0,5.6-1.1,7.6-3.2c4.1-4.1,4.1-10.8,0-14.9c-2-2.1-4.8-3.2-7.6-3.2H206V42.8z"
	/>
<path class="st0" d="M342.4,53.3c0.1,9.8-3.8,19.3-10.8,26c-14.3,14.3-37.6,14.5-51.9,0.1l-0.1-0.1c-7-6.8-11-16.2-10.8-26V5.1H285
	v48.2c0,5.5,2.1,10.7,6,14.5c7.9,8,20.8,8,28.8,0.1l0.1-0.1c3.9-3.8,6-9,6-14.5V5.1h16.3L342.4,53.3z"/>
<path class="st0" d="M377.3,55.8c-6.8,0-13.2-2.7-18-7.5c-9.8-10-9.7-26.2,0.3-36c4.8-4.6,11.1-7.3,17.7-7.3h36.9v16.3h-36.9
	c-2.4,0-4.6,1-6.3,2.7c-1.7,1.7-2.7,3.9-2.7,6.3c0.1,4.9,4.1,8.9,9,9h15.6c6.8,0,13.2,2.7,17.9,7.5c9.8,10,9.7,26.2-0.3,36
	c-4.6,4.6-11,7.3-17.6,7.3h-36V73.8h36c2.4,0,4.6-1,6.3-2.7c1.7-1.7,2.7-3.9,2.7-6.3s-1-4.8-2.7-6.5c-1.7-1.7-3.9-2.5-6.3-2.5
	L377.3,55.8z"/>
</svg>
