<svg xmlns="http://www.w3.org/2000/svg" viewBox="0 0 494.9 114.6"><title>logotype-inverso</title><path d="M69.4,73.4v-61H89.2V121L22.1,54v60.9H2.4V6.4Z" transform="translate(-2.4 -6.4)" style="fill:#e6e6e6"/><path d="M179.5,12.4V32.2H149.9V115H130.2V32.2H100.6V12.4Z" transform="translate(-2.4 -6.4)" style="fill:#e6e6e6"/><path d="M190.9,12.4h19.7V115H190.9Z" transform="translate(-2.4 -6.4)" style="fill:#e6e6e6"/><path d="M241.8,115H222.1V12.4h48.3a31.4,31.4,0,0,1,23,9.6,31.6,31.6,0,0,1,9.5,23,31.8,31.8,0,0,1-7.4,20.6,30.9,30.9,0,0,1-18.4,11.2L305.8,115H281.1l-28-37.5H241.8Zm0-57.2h28.6a11.9,11.9,0,0,0,9-3.8,12.1,12.1,0,0,0,3.7-9,11.9,11.9,0,0,0-3.7-9,11.9,11.9,0,0,0-9-3.8H241.8Z" transform="translate(-2.4 -6.4)" style="fill:#e6e6e6"/><path d="M406,70.6a44.4,44.4,0,1,1-88.8,0V12.4h19.7V70.6A23.8,23.8,0,0,0,344.2,88,24.4,24.4,0,0,0,379,88a23.7,23.7,0,0,0,7.2-17.4V12.4H406Z" transform="translate(-2.4 -6.4)" style="fill:#e6e6e6"/><path d="M448,73.6A30.6,30.6,0,0,1,417.4,43a29.4,29.4,0,0,1,8.9-21.5A29.4,29.4,0,0,1,448,12.4h44.4V32.2H448a10.2,10.2,0,0,0-7.7,3.2,10.3,10.3,0,0,0-3.2,7.6A10.9,10.9,0,0,0,448,53.9h18.7a29.8,29.8,0,0,1,21.6,8.9,30.4,30.4,0,0,1,0,43.2,29.5,29.5,0,0,1-21.6,9H423.3V95.3h43.4a11.1,11.1,0,0,0,10.9-10.9,10.1,10.1,0,0,0-3.3-7.6,10.2,10.2,0,0,0-7.6-3.2Z" transform="translate(-2.4 -6.4)" style="fill:#e6e6e6"/></svg>