<?xml version="1.0" encoding="utf-8"?>
<!-- Generator: Adobe Illustrator 23.0.0, SVG Export Plug-In . SVG Version: 6.00 Build 0)  -->
<svg version="1.0" id="Camada_1" xmlns="http://www.w3.org/2000/svg" xmlns:xlink="http://www.w3.org/1999/xlink" x="0px" y="0px"
	 viewBox="0 0 286 180" style="enable-background:new 0 0 286 180;" xml:space="preserve">
<style type="text/css">
	.st0{fill:#777777;}
	.st1{opacity:0.75;}
	.st2{fill:#FFFFFF;}
</style>
<rect class="st0" width="286" height="180"/>
<g id="objecto" class="st1">
	<path class="st2" d="M145.2,80.4c0.5,0.7,1,1.5,1.4,2.2c0.1-0.1,0.2-0.3,0.3-0.4l0,0c0.7-0.8,1.9-0.9,2.8-0.2
		c2.4,2.3,4.9,4.5,7,6.2c0.8-1,1.7-1.9,2.8-2.5c-1.8-2.1-4-4.7-6.4-7.1c-0.7-0.8-0.6-2,0.2-2.7l0,0c0.7-0.8,1.9-0.9,2.8-0.2
		c3,2.9,6.2,5.7,9.6,8.3h0.7c1.1,0,2.1,0.1,3.1,0.3l-0.1-0.1c-3-4.3-6.3-8.3-9.9-12c-0.7-0.8-0.6-2,0.2-2.7l0,0
		c0.7-0.8,1.9-0.9,2.8-0.2c3.7,3.6,7.7,6.9,11.9,9.9c1,0.7,2.1,1,2.3,0.8s-0.1-1.2-0.8-2.3c-3-4.2-6.3-8.2-10-11.9
		c-0.7-0.8-0.6-2,0.2-2.7l0,0c0.7-0.8,1.9-0.9,2.8-0.2l11.8,11.7c0.5,0.4,1.1,0.3,1.5-0.1c1.1-1.1,1.2-3.2,0.1-5.2
		c-3.3-6.4-8.2-12.8-13.6-16.8c-2.8-2-5.8-2.4-11.1,2.9l-17.9,18C142.2,76.3,144.1,79,145.2,80.4z"/>
	<path class="st2" d="M121.4,107.8c0.7-0.8,1.9-0.9,2.7-0.2c3.7,3.6,7.7,7,11.9,10l0.1,0.1c-0.2-1.3-0.3-2.5-0.3-3.8
		c-2.6-3.3-5.3-6.5-8.3-9.6c-0.7-0.8-0.6-2.1,0.2-2.8l0,0c0.7-0.8,1.9-0.9,2.7-0.2c2.5,2.4,5,4.6,7.2,6.4c0.7-1.1,1.5-2,2.5-2.8
		c-1.7-2.1-3.9-4.6-6.2-7c-0.7-0.8-0.6-2.1,0.2-2.8l0,0c0.1-0.1,0.2-0.2,0.4-0.3c-0.8-0.4-1.5-0.9-2.2-1.5c-1.5-1.1-4.1-3.1-7.2-5.5
		l-17.9,17.9c-5.3,5.3-5,8.3-2.9,11.1c4,5.4,10.4,10.3,16.8,13.6c2.1,1.1,4.1,1,5.2-0.1c0.5-0.4,0.5-1.1,0.1-1.5l-11.7-11.7
		c-0.7-0.8-0.6-2.1,0.2-2.8l0,0c0.7-0.8,1.9-0.9,2.7-0.2c3.7,3.6,7.7,6.9,12,9.9c1,0.7,2.1,1,2.3,0.8s-0.1-1.2-0.8-2.3
		c-3-4.2-6.3-8.2-9.9-11.9C120.4,109.8,120.5,108.6,121.4,107.8L121.4,107.8z"/>
	<path class="st2" d="M175.5,90.4c-6.4-4.3-13.8-3.9-16.4,0.7c-0.4,0.8-0.7,1.6-0.8,2.5L144,85.8l0,0c-0.4-1.2-0.9-2.2-1.6-3.2
		C137.6,76.3,119,51.9,115,51l14.9,27l-27-14.9c0.9,4,25.3,22.6,31.6,27.4c1,0.7,2,1.3,3.2,1.6l0,0l7.8,14.2
		c-0.9,0.1-1.7,0.4-2.5,0.8c-4.6,2.7-5,10.1-0.7,16.4c4.3,6.4,11.5,9.3,16.1,6.6s3.2-9-1.1-15.4c-1.7-2.8-4-5.1-6.6-7l-3.9-12.9
		l12.9,3.9c1.9,2.7,4.2,4.9,7,6.6c6.4,4.3,12.7,5.7,15.4,1.1C184.8,101.9,181.8,94.7,175.5,90.4z M153.7,117.4
		c1.6,2.2,2.7,4.6,3.3,7.2c0.3,2-0.4,2.8-1.2,3.2c-2.8,1.6-7.7-0.9-10.8-5.3c-3-4.5-3.3-9.8-0.5-11.4c0.8-0.4,1.8-0.7,3.6,0.4
		C150.4,113.1,152.2,115.1,153.7,117.4z M139.3,87.5c-0.8,0.8-2.1,0.8-2.9,0c-0.8-0.8-0.8-2.1,0-2.9s2.1-0.8,2.9,0
		C140.1,85.4,140.1,86.7,139.3,87.5z M179.7,103.9c-0.4,0.8-1.2,1.5-3.2,1.2c-2.6-0.6-5.1-1.7-7.2-3.3c-2.3-1.4-4.3-3.3-5.9-5.5
		c-1.1-1.8-0.8-2.9-0.4-3.6c1.6-2.8,6.9-2.6,11.4,0.5C178.9,96.2,181.4,101.1,179.7,103.9z"/>
</g>
</svg>
