<?xml version="1.0" encoding="utf-8"?>
<!-- Generator: Adobe Illustrator 23.0.0, SVG Export Plug-In . SVG Version: 6.00 Build 0)  -->
<svg version="1.1" id="Camada_1" xmlns="http://www.w3.org/2000/svg" xmlns:xlink="http://www.w3.org/1999/xlink" x="0px" y="0px"
	 viewBox="0 0 286 180" style="enable-background:new 0 0 286 180;" xml:space="preserve">
<style type="text/css">
	.st0{fill:#777777;}
	.st1{opacity:0.75;}
	.st2{fill:#FFFFFF;}
</style>
<rect class="st0" width="286" height="180"/>
<g class="st1">
	<path class="st2" d="M100.6,46.7l-8,12.4c-1.3,2-1.7,4.3-1.1,6.6c0.5,2.3,2,4.2,4,5.4l14.3,8.3c0,0,0,0,0.1,0c0,0,0,0,0,0l3.4,1.7
		c0.5,0.2,1,0.2,1.5,0l5.3-2.6l2.6,5.3c0.4,0.7,1.2,1.1,1.9,0.9l5.5-1.4l2.8,5.6c0.4,0.7,1.2,1.1,1.9,0.9l5.7-1.4l2.7,4.1
		c0.4,0.6,1.1,0.9,1.8,0.7l7.5-1.5l3,3.9h-54.1c-0.9,0-1.7,0.8-1.7,1.7v15.3c0,0.9,0.8,1.7,1.7,1.7h20.6l-6.3,25.2
		c-0.1,0.5,0,1,0.3,1.5c0.3,0.4,0.8,0.7,1.3,0.7h10.2c0.8,0,1.5-0.5,1.7-1.3l6.5-26h17.8l6.5,26c0.2,0.8,0.9,1.3,1.7,1.3H172
		c0.5,0,1-0.2,1.3-0.7c0.3-0.4,0.4-1,0.3-1.5l-6.3-25.2h19.3c0.9,0,1.7-0.8,1.7-1.7V97.3c0-0.9-0.8-1.7-1.7-1.7h-6.6l2-5.1
		c0.3-0.7,0-1.6-0.7-2l-54.5-35.8c0,0,0,0,0,0c0,0,0,0,0,0l-14.8-8.6c0,0,0,0,0,0C108.1,41.6,103.1,42.8,100.6,46.7z M126.4,138.2
		h-6.7l6-23.9h6.7L126.4,138.2z M169.8,138.2h-6.7l-6-23.9h6.7L169.8,138.2z M185,110.9h-19.8H155h-20.5h-10.2h-21.1V99h55.9h18.6
		h7.4V110.9z M176.5,95.6h-16.6l-5.3-6.8c-0.4-0.5-1-0.8-1.7-0.6l-7.4,1.5l-2.8-4.2c-0.4-0.6-1.1-0.9-1.8-0.7l-5.5,1.4l-2.8-5.6
		c-0.4-0.7-1.2-1.1-1.9-0.9l-5.5,1.4l-2.8-5.6c-0.4-0.8-1.4-1.2-2.3-0.8l-6.1,3l-0.9-0.5l13.4-20.8l51.9,34.1L176.5,95.6z
		 M123.6,54.6l-13.5,21l-12.9-7.5c-1.2-0.7-2.1-1.9-2.4-3.2c-0.3-1.4-0.1-2.8,0.7-4l8-12.4c1-1.5,2.6-2.4,4.3-2.4
		c0.9,0,1.8,0.2,2.6,0.7v0L123.6,54.6z"/>
	<path class="st2" d="M104,54.1l-3,4.5c-0.8,1.2-1,2.6-0.7,4c0.3,1.4,1.1,2.5,2.4,3.3l5.5,3.3c0.3,0.2,0.6,0.2,0.9,0.2
		c0.6,0,1.1-0.3,1.4-0.8l6.8-10.2c0.3-0.4,0.3-0.9,0.2-1.3s-0.4-0.8-0.8-1.1l-5.7-3.4C108.6,51.1,105.6,51.8,104,54.1z M109.2,55.5
		l4.2,2.5l-4.9,7.4l-4.1-2.4c-0.4-0.2-0.7-0.6-0.8-1.1s0-0.9,0.2-1.3l3-4.5c0.3-0.5,0.9-0.8,1.4-0.8
		C108.6,55.2,108.9,55.3,109.2,55.5z"/>
	<rect x="176.5" y="141.6" class="st2" width="3.4" height="3.4"/>
	<rect x="154.3" y="141.6" class="st2" width="3.4" height="3.4"/>
	<rect x="147.5" y="138.2" class="st2" width="3.4" height="3.4"/>
	<rect x="140.7" y="141.6" class="st2" width="3.4" height="3.4"/>
	<rect x="183.3" y="138.2" class="st2" width="3.4" height="3.4"/>
	<rect x="190.1" y="141.6" class="st2" width="3.4" height="3.4"/>
	<rect x="183.3" y="131.4" class="st2" width="3.4" height="3.4"/>
	<rect x="183.3" y="124.6" class="st2" width="3.4" height="3.4"/>
	<rect x="183.3" y="117.8" class="st2" width="3.4" height="3.4"/>
	<rect x="147.5" y="131.4" class="st2" width="3.4" height="3.4"/>
	<rect x="147.5" y="124.6" class="st2" width="3.4" height="3.4"/>
	<rect x="147.5" y="117.8" class="st2" width="3.4" height="3.4"/>
</g>
</svg>
