<?xml version="1.0" encoding="utf-8"?>
<!-- Generator: Adobe Illustrator 23.0.0, SVG Export Plug-In . SVG Version: 6.00 Build 0)  -->
<svg version="1.1" id="Camada_1" xmlns="http://www.w3.org/2000/svg" xmlns:xlink="http://www.w3.org/1999/xlink" x="0px" y="0px"
	 viewBox="0 0 286 180" style="enable-background:new 0 0 286 180;" xml:space="preserve">
<style type="text/css">
	.st0{fill:#777777;}
	.st1{display:none;opacity:0.75;}
	.st2{display:inline;fill:#FFFFFF;}
	.st3{opacity:0.75;}
	.st4{fill:#FFFFFF;}
</style>
<rect class="st0" width="286" height="180"/>
<g class="st1">
	<path class="st2" d="M189.4,85.6v0.2c-0.4,3.5-1.4,12.7-8,16.7c-4.6,2.7-11,2.6-19.3-0.4l2.1-2.3c0.5-0.5,0.4-1.4-0.1-1.9
		s-1.4-0.4-1.8,0.1c-3.9,4.3-7.6,6.4-10.9,6.4l0,0c-4,0-6.8-3.1-8.6-4.9c-0.3-0.3-0.6-0.6-0.8-0.9c-0.5-0.5-1.3-0.5-1.9,0
		c-0.5,0.5-0.5,1.3,0,1.8c0.2,0.2,0.5,0.5,0.7,0.8c1.9,2,5.4,5.8,10.5,5.8l0,0c2.7,0,5.4-1.1,8.3-3.1c4.1,1.6,7.8,2.6,11.2,2.9
		c1,0.1,1.7,0.9,1.7,1.9c0,3.5,0,11.1,0,14.7c0,1.1-0.9,2-2,2h-61c-1.1,0-2-0.9-2-2v-12.8c0-1.3,1.2-2.2,2.5-1.9
		c0.9,0.2,1.4,0.3,1.5,0.3s0.1,0,0.2,0c0.6,0,1.2-0.5,1.3-1.1c0.1-0.7-0.4-1.4-1.1-1.5c-0.2,0-17.5-3-19.1-22.4
		c-1-11.8,4.7-17.9,8.1-20.5c4.6-3.5,10.8-4.9,15-3.4c3.5,1.2,4.2,2.4,4.2,2.5c0.2,0.6,0.8,1,1.5,0.9s1.2-0.8,1-1.5
		c0-0.3-0.2-0.8-0.9-1.5c-0.1-0.1-0.1-0.3,0-0.4c1.8-1.8,5.5-5.2,9.7-6.8c4.8-1.9,21.9-7.1,40,3.2C190.7,67.8,189.6,83.9,189.4,85.6
		z"/>
	<path class="st2" d="M176.6,130.3v11.4c0,0.9-0.7,1.6-1.6,1.6h-40.8c-0.9,0-1.6-0.7-1.6-1.6v-11.4c0-0.9,0.7-1.6,1.6-1.6H175
		C175.9,128.8,176.6,129.5,176.6,130.3z"/>
	<path class="st2" d="M112.8,129.6v12.8c0,0.5-0.4,0.9-0.9,0.9H104c-0.5,0-0.9-0.4-0.9-0.9v-12.8c0-0.5,0.4-0.9,0.9-0.9h7.9
		C112.4,128.8,112.8,129.2,112.8,129.6z"/>
	<path class="st2" d="M121.1,129.9v12.3c0,0.6-0.5,1.1-1.1,1.1h-3c-0.6,0-1.1-0.5-1.1-1.1v-12.3c0-0.6,0.5-1.1,1.1-1.1h3
		C120.6,128.8,121.1,129.3,121.1,129.9z"/>
	<path class="st2" d="M129.5,130v12.1c0,0.7-0.5,1.2-1.2,1.2h-2.8c-0.7,0-1.2-0.5-1.2-1.2V130c0-0.7,0.5-1.2,1.2-1.2h2.8
		C129,128.8,129.5,129.3,129.5,130z"/>
</g>
<g class="st3">
	<rect x="123.8" y="142.5" class="st4" width="34.6" height="3.5"/>
	<polygon class="st4" points="153,139.1 129.2,139.1 130.5,128.7 151.7,128.7 	"/>
	<path class="st4" d="M173.9,49.2h-65.7c-1,0-1.7,0.8-1.7,1.7v5.2h69.1v-5.2C175.7,49.9,174.9,49.2,173.9,49.2z M113.4,54.4H110
		v-3.5h3.5V54.4z M120.3,54.4h-3.5v-3.5h3.5V54.4z M127.3,54.4h-3.5v-3.5h3.5V54.4z"/>
	<path class="st4" d="M92.7,114.9v5.2c0,2.9,2.3,5.2,5.2,5.2h86.4c2.9,0,5.2-2.3,5.2-5.2v-5.2H92.7z M184.3,121.8h-3.5v-3.5h3.5
		V121.8z"/>
	<path class="st4" d="M189.5,68.2v43.2H92.7V68.2c0-2.9,2.3-5.2,5.2-5.2h5.2v39.8c0,2.9,2.3,5.2,5.2,5.2h65.7c2.9,0,5.2-2.3,5.2-5.2
		V63h5.2C187.2,63,189.5,65.3,189.5,68.2z"/>
	<path class="st4" d="M106.5,59.5v43.2c0,1,0.8,1.7,1.7,1.7h65.7c1,0,1.7-0.8,1.7-1.7V59.5H106.5z M124.3,70.4l5.2-5.2l2.5,2.4l-4,4
		l4,4l-2.5,2.4l-5.2-5.2C123.6,72.2,123.6,71.1,124.3,70.4z M127.3,87.2v-3.5h10.4v3.5H127.3z M130.7,90.7v3.5h-6.9v-3.5H130.7z
		 M120.3,83.7h3.5v3.5h-3.5V83.7z M137.6,101h-20.7v-3.5h20.7V101z M141.1,94.1h-6.9v-3.5h6.9V94.1z M139.2,80.9l-3.2-1.3l6.9-17.3
		l3.2,1.3L139.2,80.9z M157.9,72.9l-5.2,5.2l-2.5-2.4l4-4l-4-4l2.5-2.4l5.2,5.2C158.5,71.1,158.5,72.2,157.9,72.9z"/>
</g>
</svg>
