<?xml version="1.0" encoding="utf-8"?>
<!-- Generator: Adobe Illustrator 23.0.0, SVG Export Plug-In . SVG Version: 6.00 Build 0)  -->
<svg version="1.1" id="Camada_1" xmlns="http://www.w3.org/2000/svg" xmlns:xlink="http://www.w3.org/1999/xlink" x="0px" y="0px"
	 viewBox="0 0 286 180" style="enable-background:new 0 0 286 180;" xml:space="preserve">
<style type="text/css">
	.st0{fill:#777777;}
	.st1{opacity:0.75;}
	.st2{fill:#FFFFFF;}
</style>
<rect class="st0" width="286" height="180"/>
<g class="st1">
	<path class="st2" d="M189.4,85.6l0,0.2c-0.4,3.5-1.4,12.7-8,16.7c-4.6,2.7-11,2.6-19.3-0.4l2.1-2.3c0.5-0.5,0.4-1.4-0.1-1.9
		c-0.5-0.5-1.4-0.4-1.8,0.1c-3.9,4.3-7.6,6.4-10.9,6.4c0,0,0,0,0,0c-4,0-6.8-3.1-8.6-4.9c-0.3-0.3-0.6-0.6-0.8-0.9
		c-0.5-0.5-1.3-0.5-1.9,0c-0.5,0.5-0.5,1.3,0,1.8c0.2,0.2,0.5,0.5,0.7,0.8c1.9,2,5.4,5.8,10.5,5.8h0c2.7,0,5.4-1.1,8.3-3.1
		c4.1,1.6,7.8,2.6,11.2,2.9c1,0.1,1.7,0.9,1.7,1.9c0,3.5,0,11.1,0,14.7c0,1.1-0.9,2-2,2h-61c-1.1,0-2-0.9-2-2l0-12.8
		c0-1.3,1.2-2.2,2.5-1.9c0.9,0.2,1.4,0.3,1.5,0.3c0.1,0,0.1,0,0.2,0c0.6,0,1.2-0.5,1.3-1.1c0.1-0.7-0.4-1.4-1.1-1.5
		c-0.2,0-17.5-3-19.1-22.4c-1-11.8,4.7-17.9,8.1-20.5c4.6-3.5,10.8-4.9,15-3.4c3.5,1.2,4.2,2.4,4.2,2.5c0.2,0.6,0.8,1,1.5,0.9
		c0.7-0.1,1.2-0.8,1-1.5c0-0.3-0.2-0.8-0.9-1.5c-0.1-0.1-0.1-0.3,0-0.4c1.8-1.8,5.5-5.2,9.7-6.8c4.8-1.9,21.9-7.1,40,3.2
		C190.7,67.8,189.6,83.9,189.4,85.6z"/>
	<path class="st2" d="M176.6,130.3v11.4c0,0.9-0.7,1.6-1.6,1.6l-40.8,0c-0.9,0-1.6-0.7-1.6-1.6v-11.4c0-0.9,0.7-1.6,1.6-1.6h40.8
		C175.9,128.8,176.6,129.5,176.6,130.3z"/>
	<path class="st2" d="M112.8,129.6v12.8c0,0.5-0.4,0.9-0.9,0.9H104c-0.5,0-0.9-0.4-0.9-0.9l0-12.8c0-0.5,0.4-0.9,0.9-0.9h7.9
		C112.4,128.8,112.8,129.2,112.8,129.6z"/>
	<path class="st2" d="M121.1,129.9v12.3c0,0.6-0.5,1.1-1.1,1.1h-3c-0.6,0-1.1-0.5-1.1-1.1v-12.3c0-0.6,0.5-1.1,1.1-1.1h3
		C120.6,128.8,121.1,129.3,121.1,129.9z"/>
	<path class="st2" d="M129.5,130v12.1c0,0.7-0.5,1.2-1.2,1.2h-2.8c-0.7,0-1.2-0.5-1.2-1.2V130c0-0.7,0.5-1.2,1.2-1.2h2.8
		C129,128.8,129.5,129.3,129.5,130z"/>
</g>
</svg>
