<?xml version="1.0" encoding="utf-8"?>
<!-- Generator: Adobe Illustrator 23.0.0, SVG Export Plug-In . SVG Version: 6.00 Build 0)  -->
<svg version="1.0" id="Camada_1" xmlns="http://www.w3.org/2000/svg" xmlns:xlink="http://www.w3.org/1999/xlink" x="0px" y="0px"
	 viewBox="0 0 286 180" style="enable-background:new 0 0 286 180;" xml:space="preserve">
<style type="text/css">
	.st0{fill:#777777;}
	.st1{opacity:0.75;}
	.st2{fill:#FFFFFF;stroke:#FFFFFF;stroke-miterlimit:10;}
	.st3{fill:#FFFFFF;}
</style>
<rect x="0" class="st0" width="286" height="180"/>
<g class="st1">
	<path class="st2" d="M181.8,121.9c-2.2-4.4-6.6-7.1-11.5-7.1H163c-5.5,0-9.9-4.4-10-9.8l2.8-9.8c0.1-0.5,0-1-0.4-1.4l-6.3-6.3
		l9.2-11.9c0.4-0.5,0.4-1.3-0.1-1.8l-14.3-15.7c-0.5-0.6-1.6-0.6-2.1,0l-14.3,15.7c-0.5,0.5-0.5,1.3-0.1,1.8l9.2,11.9l-6.3,6.3
		c-0.4,0.4-0.5,0.9-0.4,1.4l2.8,9.8c-0.1,5.4-4.6,9.8-10,9.8h-7.2c-4.9,0-9.3,2.7-11.5,7.1l-4,8c-0.1,0.2-0.2,0.4-0.2,0.6v1.4h2.9
		v-1.1l3.8-7.7c1.7-3.4,5.1-5.5,9-5.5h7.2c3.5,0,6.6-1.4,8.9-3.6l5.8,4.6l2.4,3.1l-4,8.1c-0.1,0.2-0.2,0.4-0.2,0.6v1.4h2.9v-1.1
		l3.3-6.5c0.3,0.3,0.6,0.5,1,0.5s0.8-0.2,1-0.5l3.3,6.5v1.1h2.9v-1.4c0-0.2-0.1-0.4-0.2-0.6l-4-8.1l2.4-3.1l5.8-4.6
		c2.3,2.2,5.5,3.6,8.9,3.6h7.2c3.8,0,7.2,2.1,9,5.5l3.8,7.7v1.1h2.9v-1.4c0-0.2-0.1-0.4-0.2-0.6L181.8,121.9z M143,74.8
		c0.8,0,1.4,0.6,1.4,1.4s-0.6,1.4-1.4,1.4s-1.4-0.6-1.4-1.4S142.2,74.8,143,74.8z M130.6,74.8l11-12.1v9.4c-1.7,0.6-2.9,2.2-2.9,4
		c0,2.4,1.9,4.3,4.3,4.3s4.3-1.9,4.3-4.3c0-1.9-1.2-3.4-2.9-4v-9.4l11,12.1l-8.8,11.4h-7.2L130.6,74.8z M143,121l-1.4-1.9h2.9
		L143,121z M152.3,111.8l-5.5,4.4h-7.6l-5.5-4.4c1.3-2,2.1-4.5,2.1-7.1c0-0.1,0-0.3-0.1-0.4l-2.6-9.2l6.1-6.1h7.4l6.1,6.1l-2.6,9.2
		c0,0.1-0.1,0.3-0.1,0.4C150.2,107.4,150.9,109.8,152.3,111.8z"/>
	<path class="st3" d="M181.6,54.7c2.4,0,4.3-1.9,4.3-4.3s-1.9-4.3-4.3-4.3c-1.9,0-3.4,1.2-4,2.9h-30.3v-1.4c0-0.8-0.6-1.4-1.4-1.4
		h-5.7c-0.8,0-1.4,0.6-1.4,1.4V49h-30.3c-0.6-1.7-2.2-2.9-4-2.9c-2.4,0-4.3,1.9-4.3,4.3s1.9,4.3,4.3,4.3c1.9,0,3.4-1.2,4-2.9h19.8
		c-13.5,5.4-23.4,18-25,32.9h-1.7c-0.8,0-1.4,0.6-1.4,1.4v5.7c0,0.8,0.6,1.4,1.4,1.4h5.7c0.8,0,1.4-0.6,1.4-1.4v-5.7
		c0-0.8-0.6-1.4-1.4-1.4h-1.1c2-17,15.6-30.6,32.6-32.6v1.1c0,0.8,0.6,1.4,1.4,1.4h5.7c0.8,0,1.4-0.6,1.4-1.4v-1.1
		c17,2,30.6,15.6,32.6,32.6h-1.1c-0.8,0-1.4,0.6-1.4,1.4v5.7c0,0.8,0.6,1.4,1.4,1.4h5.7c0.8,0,1.4-0.6,1.4-1.4v-5.7
		c0-0.8-0.6-1.4-1.4-1.4h-1.7c-1.6-14.9-11.5-27.5-25-32.9h19.8C178.2,53.5,179.8,54.7,181.6,54.7z M181.6,49c0.8,0,1.4,0.6,1.4,1.4
		c0,0.8-0.6,1.4-1.4,1.4s-1.4-0.6-1.4-1.4C180.2,49.7,180.8,49,181.6,49z M104.4,51.9c-0.8,0-1.4-0.6-1.4-1.4c0-0.8,0.6-1.4,1.4-1.4
		c0.8,0,1.4,0.6,1.4,1.4C105.8,51.2,105.2,51.9,104.4,51.9z M105.8,90.5H103v-2.9h2.9V90.5z M144.4,51.9h-2.9V49h2.9V51.9z
		 M180.2,87.6h2.9v2.9h-2.9V87.6z"/>
	<rect x="141.6" y="93.3" class="st3" width="2.9" height="2.9"/>
	<rect x="141.6" y="99.1" class="st3" width="2.9" height="2.9"/>
	<rect x="141.6" y="104.8" class="st3" width="2.9" height="2.9"/>
</g>
</svg>
