<?xml version="1.0" encoding="utf-8"?>
<!-- Generator: Adobe Illustrator 23.0.0, SVG Export Plug-In . SVG Version: 6.00 Build 0)  -->
<svg version="1.1" id="Camada_1" xmlns="http://www.w3.org/2000/svg" xmlns:xlink="http://www.w3.org/1999/xlink" x="0px" y="0px"
	 viewBox="0 0 286 180" style="enable-background:new 0 0 286 180;" xml:space="preserve">
<style type="text/css">
	.st0{fill:#777777;}
	.st1{opacity:0.75;}
	.st2{fill:#FFFFFF;}
</style>
<rect class="st0" width="286" height="180"/>
<g class="st1">
	<rect x="172.3" y="44.8" class="st2" width="3.5" height="7"/>
	<rect x="172.3" y="55.3" class="st2" width="3.5" height="7"/>
	<rect x="172.3" y="65.9" class="st2" width="3.5" height="7"/>
	<rect x="115.9" y="44.8" class="st2" width="3.5" height="7"/>
	<rect x="115.9" y="55.3" class="st2" width="3.5" height="7"/>
	<rect x="115.9" y="65.9" class="st2" width="3.5" height="7"/>
	<path class="st2" d="M198.8,129.4H197V73c0-3.9-3.2-7-7-7h-7V39.5c0-1-0.8-1.8-1.8-1.8h-70.5c-1,0-1.8,0.8-1.8,1.8v26.4h-7
		c-3.9,0-7,3.2-7,7v56.4H93c-1,0-1.8,0.8-1.8,1.8v7c0,4.9,3.9,8.8,8.8,8.8h91.6c4.9,0,8.8-3.9,8.8-8.8v-7
		C200.5,130.1,199.7,129.4,198.8,129.4z M151.2,95.1L143,87c-5-4.9-8.2-11.3-9.1-18.2l21.9,21.8L151.2,95.1z M136.1,90.6l2.9-2.9
		c0.5,0.6,1,1.2,1.6,1.8l2.9,2.9l-2.8,2.8L136.1,90.6z M137.1,67V49.6l15.9,9.3l-15.1,8.8L137.1,67z M150.1,80h4.7
		c-0.6,1-1.3,1.9-2,2.7L150.1,80z M146.6,76.5l-6.2-6.2l16.9-9.9c0.8-0.5,1.1-1.6,0.6-2.4c-0.2-0.3-0.4-0.5-0.6-0.6L136.2,45
		c-0.8-0.5-1.9-0.2-2.4,0.6c-0.2,0.3-0.2,0.6-0.2,0.9v16.9l-0.5-0.5c-0.7-0.7-1.8-0.7-2.5,0c-0.3,0.3-0.5,0.8-0.5,1.2
		c0,4.2,0.8,8.4,2.2,12.3h-5.7V41.3h38.8v35.2H146.6z M168.8,41.3h10.6v35.2h-10.6V41.3z M112.4,41.3H123v35.2h-10.6V41.3z
		 M133.8,80c0.9,1.7,1.8,3.4,3,4.9l-4.4,4.4c-0.7,0.7-0.7,1.8,0,2.5l2.3,2.3l-4.5,4.5c-1.1-0.6-2.3-1-3.6-1c-3.9,0-7,3.2-7,7
		s3.2,7,7,7s7-3.2,7-7c0-1.3-0.4-2.5-1-3.6l4.5-4.5l2.3,2.3c0.7,0.7,1.8,0.7,2.5,0l4-4l4,4c0.7,0.7,1.8,0.7,2.5,0l2.3-2.3l4.5,4.5
		c-0.6,1.1-1,2.3-1,3.6c0,3.9,3.2,7,7,7c3.9,0,7-3.2,7-7s-3.2-7-7-7c-1.3,0-2.5,0.4-3.6,1l-4.5-4.5l2.3-2.3c0.7-0.7,0.7-1.8,0-2.5
		l-4.1-4.1c1.4-1.6,2.6-3.3,3.5-5.2h22.2c1,0,1.8-0.8,1.8-1.8v-1.8h3.5v45.8h-81.1V76.5h3.5v1.8c0,1,0.8,1.8,1.8,1.8H133.8z
		 M130,104.7c0,1.9-1.6,3.5-3.5,3.5c-1.9,0-3.5-1.6-3.5-3.5s1.6-3.5,3.5-3.5C128.5,101.2,130,102.7,130,104.7z M165.3,101.2
		c1.9,0,3.5,1.6,3.5,3.5s-1.6,3.5-3.5,3.5c-1.9,0-3.5-1.6-3.5-3.5S163.3,101.2,165.3,101.2z M98.3,73c0-1.9,1.6-3.5,3.5-3.5h7V73
		h-5.3c-1,0-1.8,0.8-1.8,1.8v49.3c0,1,0.8,1.8,1.8,1.8h84.6c1,0,1.8-0.8,1.8-1.8V74.7c0-1-0.8-1.8-1.8-1.8h-5.3v-3.5h7
		c1.9,0,3.5,1.6,3.5,3.5v56.4H98.3V73z M133.6,132.9h24.7v1.8c0,1-0.8,1.8-1.8,1.8h-21.1c-1,0-1.8-0.8-1.8-1.8V132.9z M197,138.2
		c0,2.9-2.4,5.3-5.3,5.3l0,0h-91.6c-2.9,0-5.3-2.4-5.3-5.3l0,0v-5.3H130v1.8c0,2.9,2.4,5.3,5.3,5.3h21.1c2.9,0,5.3-2.4,5.3-5.3v-1.8
		H197V138.2z"/>
	<rect x="98.3" y="136.4" class="st2" width="3.5" height="3.5"/>
	<rect x="105.4" y="136.4" class="st2" width="3.5" height="3.5"/>
</g>
</svg>
