<?xml version="1.0" encoding="utf-8"?>
<!-- Generator: Adobe Illustrator 23.0.0, SVG Export Plug-In . SVG Version: 6.00 Build 0)  -->
<svg version="1.0" id="Camada_1" xmlns="http://www.w3.org/2000/svg" xmlns:xlink="http://www.w3.org/1999/xlink" x="0px" y="0px"
	 viewBox="0 0 286 180" style="enable-background:new 0 0 286 180;" xml:space="preserve">
<style type="text/css">
	.st0{fill:#777777;}
	.st1{opacity:0.75;}
	.st2{fill:#FFFFFF;}
</style>
<g id="holder_17390d75345">
	<rect class="st0" width="286" height="180"/>
</g>
<g class="st1">
	<path class="st2" d="M155.2,119.2c0,5.7,0,11.5,0,17.2c-2.2,0-4.5,0-6.7,0c0-5.7,0-11.5,0-17.2h-10.4c0,5.7,0,11.5,0,17.2
		c-2.2,0-4.5,0-6.7,0c0-5.7,0-11.5,0-17.2h-3h-1.2v-1.2v-16.7h2.6l8-16.5h-2.2c0-3.2,0-6.4,0-9.5h5.5v-5.5c0-1.3-1.1-2.4-2.4-2.4
		l-0.6,0c-4.3,0-7.8-3.5-7.8-7.8V44.2h4.6v15.5c0,1.7,1.3,3.1,3,3.2l0.8,0c3.8,0,7,3.2,7,7v5.5h5.3c0,3.2,0,6.4,0,9.5h-2.2l8,16.5
		h2.6v17.8L155.2,119.2L155.2,119.2z M157.1,114.4h-27.5v2.5h27.5V114.4z M129.6,106.2h27.5v-2.5c-9.2,0-18.3,0-27.5,0V106.2z
		 M136.4,127.8h-3.3v6.8h3.3V127.8z M153.5,127.8h-3.3v6.8h3.3V127.8z"/>
</g>
</svg>
