<?xml version="1.0" encoding="utf-8"?>
<!-- Generator: Adobe Illustrator 23.0.0, SVG Export Plug-In . SVG Version: 6.00 Build 0)  -->
<svg version="1.0" id="Camada_1" xmlns="http://www.w3.org/2000/svg" xmlns:xlink="http://www.w3.org/1999/xlink" x="0px" y="0px"
	 viewBox="0 0 286 180" style="enable-background:new 0 0 286 180;" xml:space="preserve">
<style type="text/css">
	.st0{fill:#777777;}
	.st1{opacity:0.75;}
	.st2{fill:#FFFFFF;}
</style>
<rect class="st0" width="286" height="180"/>
<g class="st1">
	<path class="st2" d="M182.1,50.8H97.9c-1.9,0-3.4,1.5-3.4,3.4V99c0,1.9,1.5,3.4,3.4,3.4h84.2c1.9,0,3.4-1.5,3.4-3.4V54.3
		C185.5,52.4,183.9,50.9,182.1,50.8z M97.5,99V54.3c0-0.2,0.2-0.4,0.4-0.4h2.7v45.5h-2.7C97.7,99.4,97.5,99.2,97.5,99z M103.6,53.9
		h72.8v45.5h-72.8V53.9z M182.4,99c0,0.2-0.2,0.4-0.4,0.4h-2.7V53.9h2.7c0.2,0,0.4,0.2,0.4,0.4V99z"/>
	<path class="st2" d="M140,58.4c-3.9,0-7.7,1.3-10.9,3.6l1.8,2.4c6.7-5,16.2-3.6,21.2,3.1c5,6.7,3.6,16.2-3.1,21.2
		c-6.7,5-16.2,3.6-21.2-3.1c-4.4-5.9-3.9-14.1,1.2-19.5l-2.2-2.1c-6.9,7.3-6.6,18.8,0.7,25.7s18.8,6.6,25.7-0.7s6.6-18.8-0.7-25.7
		C149.1,60.2,144.6,58.4,140,58.4z"/>
	<path class="st2" d="M135.4,85.7c0.3,0,0.6-0.1,0.8-0.2l12.1-7.6c0.7-0.4,0.9-1.4,0.5-2.1c-0.1-0.2-0.3-0.4-0.5-0.5l-12.1-7.6
		c-0.7-0.4-1.6-0.2-2.1,0.5c-0.2,0.2-0.2,0.5-0.2,0.8v15.2C133.9,85,134.6,85.7,135.4,85.7z M136.9,71.8l7.8,4.8l-7.8,4.8V71.8z"/>
	<path class="st2" d="M106.6,58.4v3h3v-1.5h1.5v-3h-3C107.3,56.9,106.6,57.6,106.6,58.4z"/>
	<path class="st2" d="M171.8,56.9h-3v3h1.5v1.5h3v-3C173.3,57.6,172.7,56.9,171.8,56.9z"/>
	<path class="st2" d="M170.3,93.3h-1.5v3h3c0.8,0,1.5-0.7,1.5-1.5v-3h-3V93.3z"/>
	<path class="st2" d="M109.6,91.8h-3v3c0,0.8,0.7,1.5,1.5,1.5h3v-3h-1.5V91.8z"/>
	<path class="st2" d="M180.2,113h-6.8v-2.3c0-2.9-2.4-5.3-5.3-5.3h-49.3v3H168c1.3,0,2.3,1,2.3,2.3v11.9c-0.7-0.3-1.5-0.5-2.3-0.5
		h-3.8c0-0.1,0-0.3,0-0.4v-5.3c0-1.9-1.5-3.4-3.4-3.4h-11.4c-1.9,0-3.4,1.5-3.4,3.4v5.3c0,0.1,0,0.3,0,0.4h-2.3
		c-1.4,0-2.8,0.6-3.8,1.6c-1-1-2.4-1.6-3.8-1.6h-2.3c0-0.1,0-0.3,0-0.4v-5.3c0-1.9-1.5-3.4-3.4-3.4h-11.4c-1.9,0-3.4,1.5-3.4,3.4
		v5.3c0,0.1,0,0.3,0,0.4h-3.8c-0.8,0-1.6,0.2-2.3,0.5v-11.9c0-1.3,1-2.3,2.3-2.3h3.8v-3h-3.8c-2.9,0-5.3,2.4-5.3,5.3v2.3h-6.8
		c-2.9,0-5.3,2.4-5.3,5.3v12.1c0,2.6,1.9,4.9,4.5,5.3v4.6c0,0.8,0.7,1.5,1.5,1.5h6.1c0.6,0,1.1-0.3,1.4-0.8l2.6-5.2h58.8l2.6,5.2
		c0.3,0.5,0.8,0.8,1.4,0.8h6.1c0.8,0,1.5-0.7,1.5-1.5v-4.6c2.6-0.4,4.5-2.6,4.5-5.3v-3.8h-3v3.8c0,1.3-1,2.3-2.3,2.3h-6.8v-16.7h6.8
		c1.3,0,2.3,1,2.3,2.3v5.3h3v-5.3C185.5,115.4,183.1,113,180.2,113z M149.1,121.7v-5.3c0-0.2,0.2-0.4,0.4-0.4h11.4
		c0.2,0,0.4,0.2,0.4,0.4v5.3c0,0.2-0.2,0.4-0.4,0.4h-11.4C149.2,122.1,149.1,122,149.1,121.7z M118.7,121.7v-5.3
		c0-0.2,0.2-0.4,0.4-0.4h11.4c0.2,0,0.4,0.2,0.4,0.4v5.3c0,0.2-0.2,0.4-0.4,0.4h-11.4C118.9,122.1,118.7,122,118.7,121.7z
		 M111.9,125.2h24.3c1.3,0,2.3,1,2.3,2.3v5.3h-28.8v-5.3C109.6,126.2,110.7,125.2,111.9,125.2z M97.5,130.5v-12.1
		c0-1.3,1-2.3,2.3-2.3h6.8v16.7h-6.8C98.5,132.7,97.5,131.7,97.5,130.5z M105.7,138.8h-3.6v-3h5.1L105.7,138.8z M177.9,135.8v3h-3.6
		l-1.5-3H177.9z M141.5,132.7v-5.3c0-1.3,1-2.3,2.3-2.3H168c1.3,0,2.3,1,2.3,2.3v5.3H141.5z"/>
</g>
</svg>
