<svg xmlns="http://www.w3.org/2000/svg" xmlns:xlink="http://www.w3.org/1999/xlink" width="242" height="122.763" viewBox="0 0 242 122.763">
  <defs>
    <clipPath id="clip-path">
      <rect id="Ret칙ngulo_3" data-name="Ret칙ngulo 3" width="70" height="70" fill="#fefefe"/>
    </clipPath>
  </defs>
  <g id="Grupo_51" data-name="Grupo 51" transform="translate(-169.5 -531)">
    <path id="Caminho_7" data-name="Caminho 7" d="M0,0H242V122.763H0Z" transform="translate(169.5 531)" fill="#515c6f"/>
    <g id="Grupo_de_m치scara_1" data-name="Grupo de m치scara 1" transform="translate(255.5 557)" clip-path="url(#clip-path)">
      <g id="pintura-industrial" transform="translate(-0.312 3.87)">
        <g id="Camada_2" data-name="Camada 2" transform="translate(15.496 0)">
          <path id="Caminho_1" data-name="Caminho 1" d="M58,14.956v9.266a3.677,3.677,0,0,0,2.613,3.5l24.326,7.246a.278.278,0,0,1,.194.254v1.6H80.9a2.323,2.323,0,0,0-2.31,2.31v1.246a2.323,2.323,0,0,0,2.31,2.323h.206l-.665,6.641a.907.907,0,0,0,1.8.181l.689-6.822H89.5L91.2,59.653a5,5,0,1,1-9.955,0l.581-5.9a.907.907,0,1,0-1.8-.181l-.581,5.9a6.81,6.81,0,1,0,13.56,0l-1.669-16.8a2.323,2.323,0,0,0,2-2.3V39.125a2.323,2.323,0,0,0-2.31-2.31H86.95v-1.6a2.1,2.1,0,0,0-1.488-2L61.124,25.976a1.851,1.851,0,0,1-1.306-1.754V14.956a.9.9,0,0,1,.9-.883h2.939v4.222a3,3,0,0,0,3,3H83.841a.907.907,0,0,0,0-1.814H66.652a1.185,1.185,0,0,1-1.185-1.185V8.025A1.185,1.185,0,0,1,66.652,6.84H83.236V9.864a3.7,3.7,0,0,0,3.7,3.689,3.653,3.653,0,0,0,1.875-.508v4.56a3.629,3.629,0,0,0,.52,1.875H88.074a.907.907,0,1,0,0,1.814H91.51V31.674a3.6,3.6,0,1,0,7.209,0V27.319a3.6,3.6,0,0,0,5.4-3.121v-2.9h1.306a3.012,3.012,0,0,0,3.012-3V14.073h2.758a.907.907,0,1,0,0-1.814h-2.758V8.025a3.012,3.012,0,0,0-3.012-3H66.652a3,3,0,0,0-3,3v4.234H60.712a2.71,2.71,0,0,0-2.71,2.7ZM98.719,24.2V21.307H102.3V24.2a1.79,1.79,0,1,1-3.581,0Zm-5.4-2.9H96.9V31.674a1.79,1.79,0,1,1-3.581,0ZM85.05,9.864V6.84h20.37a1.185,1.185,0,0,1,1.2,1.185v10.27a1.185,1.185,0,0,1-1.2,1.185H92.514a1.875,1.875,0,0,1-1.887-1.875V9.864a.907.907,0,1,0-1.814,0,1.887,1.887,0,0,1-3.762,0ZM80.9,38.629H91.014a.508.508,0,0,1,.5.5v1.246a.508.508,0,0,1-.5.508H80.9a.508.508,0,0,1-.5-.508V39.125a.508.508,0,0,1,.5-.5Z" transform="translate(-58.003 -5.025)" fill="#fefefe"/>
          <path id="Caminho_2" data-name="Caminho 2" d="M149.631,187.253a3.036,3.036,0,1,0,2.155.885,3.048,3.048,0,0,0-2.155-.885Zm0,1.814a1.234,1.234,0,1,1-1.222,1.222,1.234,1.234,0,0,1,1.222-1.222Z" transform="translate(-121.422 -135.492)" fill="#fefefe"/>
        </g>
        <g id="Camada_1" data-name="Camada 1" transform="translate(0 23.757)">
          <circle id="Elipse_1" data-name="Elipse 1" cx="0.931" cy="0.931" r="0.931" transform="translate(16.451 23.903)" fill="#fefefe"/>
          <circle id="Elipse_2" data-name="Elipse 2" cx="0.931" cy="0.931" r="0.931" transform="translate(16.451 31.342)" fill="#fefefe"/>
          <circle id="Elipse_3" data-name="Elipse 3" cx="0.931" cy="0.931" r="0.931" transform="translate(12.725 27.628)" fill="#fefefe"/>
          <circle id="Elipse_4" data-name="Elipse 4" cx="0.931" cy="0.931" r="0.931" transform="translate(16.451 27.628)" fill="#fefefe"/>
          <circle id="Elipse_5" data-name="Elipse 5" cx="0.931" cy="0.931" r="0.931" transform="translate(20.165 27.628)" fill="#fefefe"/>
          <path id="Caminho_3" data-name="Caminho 3" d="M35.723,102.322v-1.234a3.726,3.726,0,0,0-3.556-3.714,12.411,12.411,0,0,0-8.855-7.185V88.665H18.34v1.524a12.411,12.411,0,0,0-8.855,7.185,3.726,3.726,0,0,0-3.556,3.714v1.234H3.45v4.972H5.941a3.714,3.714,0,0,0,3.7,3.641,3.846,3.846,0,0,0,1.1-.157l.157-.048,2.492,5.9-1.887.786-.375-.883a.617.617,0,0,0-.569-.387.581.581,0,0,0-.242.048l-3.435,1.427a.629.629,0,0,0-.339.81l3.327,8.02a.617.617,0,0,0,.581.387.52.52,0,0,0,.23-.048l3.447-1.427a.617.617,0,0,0,.327-.81l-.363-.883,1.9-.786a7.439,7.439,0,0,0,9.665-.012l1.9.8-.363.883a.617.617,0,0,0,.327.81l3.447,1.427a.52.52,0,0,0,.23.048.617.617,0,0,0,.581-.387l3.327-8.02a.629.629,0,0,0-.339-.81L31.332,116.2a.581.581,0,0,0-.242-.048.617.617,0,0,0-.569.387l-.375.883-1.9-.774,2.48-5.927.169.06a3.992,3.992,0,0,0,1.113.157,3.714,3.714,0,0,0,3.7-3.641H38.2v-4.972ZM5.929,106.048H4.683v-2.48H5.929ZM23.312,91.471a11.165,11.165,0,0,1,7.5,5.891h-7.5Zm-3.726-1.56h2.48v7.451h-2.48Zm-1.246,1.56v5.891h-7.5A11.165,11.165,0,0,1,18.34,91.471Zm-7.56,33.943-2.843-6.883,2.286-.956,2.855,6.883Zm2.843-2.891-1.645-3.956,1.439-.6a7.33,7.33,0,0,0,1.645,3.968Zm7.2.907a6.205,6.205,0,1,1,6.218-6.205,6.205,6.205,0,0,1-6.218,6.205Zm10.609-5.855,2.286.956-2.843,6.883-2.3-.956Zm-1.754.992-1.633,3.956-1.439-.6a7.343,7.343,0,0,0,1.633-3.943Zm-1.9-4a7.439,7.439,0,0,0-13.911.012l-1.778-4.222,7.355-2.25a3.726,3.726,0,0,0,1.379-.8,3.871,3.871,0,0,0,1.391.8l7.318,2.25Zm6.7-7.355a2.48,2.48,0,0,1-2.468,2.492,2.19,2.19,0,0,1-.738-.121l-8.7-2.673a5.184,5.184,0,0,1-1.754-1.27,5.03,5.03,0,0,1-1.742,1.27l-8.7,2.673a2.189,2.189,0,0,1-.738.121,2.48,2.48,0,0,1-2.468-2.492v-6.121A2.48,2.48,0,0,1,9.655,98.6H32a2.48,2.48,0,0,1,2.48,2.492Zm2.48-1.161H35.723v-2.48h1.234Z" transform="translate(-3.45 -88.665)" fill="#fefefe"/>
          <path id="Caminho_4" data-name="Caminho 4" d="M30.841,128.015H22.156a1.246,1.246,0,0,0-1.246,1.246v6.121a1.234,1.234,0,0,0,1.234,1.246.979.979,0,0,0,.375-.06l8.685-2.673a1.222,1.222,0,0,0,.883-1.185v-3.447A1.246,1.246,0,0,0,30.841,128.015Zm0,4.693-8.685,2.673v-6.121h8.685Z" transform="translate(-15.95 -116.838)" fill="#fefefe"/>
          <path id="Caminho_5" data-name="Caminho 5" d="M78.921,128.015H70.236a1.246,1.246,0,0,0-1.246,1.246v3.447a1.222,1.222,0,0,0,.883,1.185l8.685,2.673a.979.979,0,0,0,.375.06,1.234,1.234,0,0,0,1.234-1.246v-6.121A1.246,1.246,0,0,0,78.921,128.015Zm0,7.367-8.685-2.673v-3.447h8.685Z" transform="translate(-50.374 -116.838)" fill="#fefefe"/>
        </g>
      </g>
    </g>
  </g>
</svg>
